# xmcd
# 
# Track frame offsets:
#     150
#     12098
#     23641
#     39887
#     50783
#     64273
#     73855
#     85185
#     97780
#     111140
#     120449
#     131981
#     143015
#     153440
#     169130
# 
# Disc length: 2408
# 
# Revision: 4
# Processed by: cddbd v1.5.2PL0 Copyright (c) Steve Scherf et al.
# Submitted via: fre:ac v1.0.27
# 
DISCID=c209660f
DTITLE=Various Artist - Country Classics CD2
DYEAR=1997
DGENRE=Country
TTITLE0=Oak Ridge Boys - Elvira
TTITLE1=Crystal Gayle - Don't It Make My Brown Eyes Blue
TTITLE2=Billie Joe Spears - Blanket On The Ground
TTITLE3=Buck Owens - My Heart Skips A Beat
TTITLE4=Loretta Lynn - Coal Miners Daughter
TTITLE5=George Jones - The Race Is On
TTITLE6=Sonny James - Young Love
TTITLE7=Susan Raye - L.A. International Airport
TTITLE8=Mel McDaniel - Baby's Got Her Blue Jeans On
TTITLE9=Glen Campbell and Bobbie Gentry - Let It Be Me
TTITLE10=Wanda Jackson - In The Middle Of A Heartache
TTITLE11=Freddie Hart - Easy Lovin'
TTITLE12=Ferlin Husky - Wings Of A Dove
TTITLE13=The Dirt Band - An American Dream
TTITLE14=Tommy Overstreet - Heaven Is My Woman's Love
EXTD=
EXTT0=
EXTT1=
EXTT2=
EXTT3=
EXTT4=
EXTT5=
EXTT6=
EXTT7=
EXTT8=
EXTT9=
EXTT10=
EXTT11=
EXTT12=
EXTT13=
EXTT14=
PLAYORDER=
